<svg width="24" height="24" viewBox="0 0 24 24" fill="none" xmlns="http://www.w3.org/2000/svg">
<path d="M6.97502 22C6.45836 22 6.01269 21.8333 5.63802 21.5C5.26336 21.1667 5.05069 20.7417 5.00002 20.225L3.27502 4.475C3.19169 3.80833 3.37502 3.22933 3.82502 2.738C4.27502 2.24667 4.83336 2.00067 5.50002 2H18.5C19.1667 2 19.725 2.246 20.175 2.738C20.625 3.23 20.8084 3.809 20.725 4.475L19 20.225C18.95 20.7417 18.7374 21.1667 18.362 21.5C17.9867 21.8333 17.541 22 17.025 22H6.97502ZM6.57502 16H17.45L18.75 4H5.25002L6.57502 16Z" fill="white"/>
</svg>
