<svg width="24" height="24" viewBox="0 0 24 24" fill="none" xmlns="http://www.w3.org/2000/svg">
<path d="M8 22V20.25C6.25 19.55 4.81267 18.4667 3.688 17C2.56333 15.5333 2.00067 13.8667 2 12C2 10.6167 2.26267 9.31667 2.788 8.1C3.31333 6.88334 4.02567 5.825 4.925 4.925C5.82433 4.025 6.88267 3.31267 8.1 2.788C9.31733 2.26333 10.6173 2.00067 12 2C13.3827 1.99933 14.6827 2.262 15.9 2.788C17.1173 3.314 18.1757 4.02633 19.075 4.925C19.9743 5.82367 20.687 6.882 21.213 8.1C21.739 9.318 22.0013 10.618 22 12C22 13.8667 21.4377 15.5333 20.313 17C19.1883 18.4667 17.7507 19.55 16 20.25V22H8ZM10 12H14V4.25C13.6667 4.16667 13.3333 4.10433 13 4.063C12.6667 4.02167 12.3333 4.00067 12 4C11.6667 3.99933 11.3333 4.02033 11 4.063C10.6667 4.10567 10.3333 4.168 10 4.25V12ZM4 12H8V5.075C6.75 5.79167 5.771 6.76667 5.063 8C4.355 9.23333 4.00067 10.5667 4 12ZM16 12H20C20 10.5667 19.646 9.23333 18.938 8C18.23 6.76667 17.2507 5.79167 16 5.075V12Z" fill="white"/>
</svg>
